# xmcd CD database file
#
# Track frame offsets:
#	150
#	19300
#	43653
#	66401
#	88343
#	120402
#	138754
#	159146
#	177047
#	197493
#	218595
#	240990
#	259545
#	276769
#
# Disc length: 3984 seconds
#
# Revision: 0
# Processed by: cddbd v1.4PL0 Copyright (c) Steve Scherf et al.
# Submitted via: CDex 1.50Beta7
#
DISCID=b50f8e0e
DTITLE=Luis Alberto - Salsa Urbana
DYEAR=1900
DGENRE=Salsa
TTITLE0=Amour Mas Bello
TTITLE1=Guaguanco del Adios
TTITLE2=Me Encanta Como Bailas
TTITLE3=Te Voy a Arrancar de Mi
TTITLE4=Marejada Feliz
TTITLE5=Volver, Volver
TTITLE6=Estar Contigo
TTITLE7=Quiero Verte a Solas
TTITLE8=Lucero de la Mañana
TTITLE9=Mi Corazon Pide Vacaciones
TTITLE10=Tu No, Yo Si
TTITLE11=Bailando Asi
TTITLE12=Coge Pa' la Cola
TTITLE13=Reina de Reinas
EXTD=
EXTT0=
EXTT1=
EXTT2=
EXTT3=
EXTT4=
EXTT5=
EXTT6=
EXTT7=
EXTT8=
EXTT9=
EXTT10=
EXTT11=
EXTT12=
EXTT13=
PLAYORDER=
